<svg width="212" height="45" viewBox="0 0 212 45" fill="none" xmlns="http://www.w3.org/2000/svg">
<path d="M69.9317 24.5578V8.12049L62.4137 19.019H62.3031L54.785 8.12049V24.5578H53.4307V5.63434H54.7594L62.3801 16.822L70.0068 5.63434H71.3355V24.5578H69.9298H69.9317Z" fill="black"/>
<path d="M92.7823 24.5578L90.3717 19.257H79.1598L76.7432 24.5578H75.2783L84.1251 5.49861H85.4854L94.3322 24.5578H92.7823ZM84.7786 7.03672L79.756 17.9864H89.7676L84.7786 7.03672Z" fill="black"/>
<path d="M111.956 24.5578L105.903 16.7197H99.688V24.5578H98.2744V5.63434H106.258C110.353 5.63434 113.036 7.84906 113.036 11.0118V11.063C113.036 14.2257 110.677 16.0412 107.477 16.4739L113.743 24.5578H111.954H111.956ZM111.632 11.0649C111.632 8.52763 109.623 6.93249 106.176 6.93249H99.688V15.4491H106.091C109.265 15.4491 111.63 13.854 111.63 11.1239V11.0649H111.632Z" fill="black"/>
<path d="M133.711 24.5578L131.3 19.257H120.088L117.672 24.5578H116.207L125.054 5.49861H126.414L135.261 24.5578H133.711ZM125.709 7.03672L120.687 17.9864H130.698L125.709 7.03672Z" fill="black"/>
<path d="M155.707 24.5578V8.12047L148.197 19.019H148.086L140.568 8.12047V24.5578H139.208V5.63432H140.543L148.163 16.822L155.79 5.63432H157.119V24.5578H155.705H155.707Z" fill="black"/>
<path d="M107.181 29.9117V40.3067H106.351V29.9117H102.444V29.1505H111.082V29.9117H107.181Z" fill="black"/>
<path d="M118.762 40.4994C115.367 40.4994 113.144 37.8008 113.144 34.76V34.7286C113.144 31.6818 115.398 28.9577 118.794 28.9577C122.19 28.9577 124.407 31.6504 124.407 34.6971C124.42 34.7063 124.42 34.7168 124.407 34.7286C124.407 37.7694 122.152 40.4994 118.762 40.4994ZM123.544 34.7266C123.544 31.969 121.528 29.7032 118.762 29.7032C115.996 29.7032 114.012 31.9375 114.012 34.6932V34.7246C114.012 37.4822 116.028 39.7481 118.794 39.7481C121.56 39.7481 123.544 37.5137 123.544 34.7581V34.7266Z" fill="black"/>
<path d="M131.698 40.4798C129.009 40.4798 127.109 38.7882 127.109 35.6707V29.1505H127.939V35.5881C127.939 38.2218 129.364 39.7323 131.729 39.7323C134.094 39.7323 135.455 38.3634 135.455 35.6707V29.1505H136.29V35.5743C136.29 38.7764 134.416 40.4817 131.696 40.4817L131.698 40.4798Z" fill="black"/>
<path d="M147.541 40.3047L143.97 35.6825H140.308V40.3047H139.479V29.1485H144.183C146.594 29.1485 148.181 30.4526 148.181 32.3191V32.3506C148.181 34.2172 146.787 35.2813 144.902 35.5409L148.596 40.3047H147.54H147.541ZM147.348 32.3506C147.348 30.8518 146.169 29.9097 144.134 29.9097H140.31V34.9331H144.088C145.962 34.9331 147.348 33.991 147.348 32.3821V32.3506Z" fill="black"/>
<path d="M154.872 40.466C153.077 40.466 151.703 39.872 150.36 38.6781L150.905 38.0585C152.137 39.1875 153.27 39.7186 154.917 39.7186C156.564 39.7186 157.748 38.7764 157.748 37.4979V37.4724C157.748 36.2903 157.126 35.6058 154.579 35.0964C151.896 34.5535 150.809 33.6428 150.809 31.9513V31.9198C150.809 30.2676 152.325 28.9892 154.406 28.9892C156.487 28.9892 157.108 29.4337 158.248 30.3444L157.717 30.9974C156.66 30.0926 155.604 29.7385 154.372 29.7385C153.14 29.7385 151.638 30.6807 151.638 31.8431V31.8746C151.638 33.0567 152.248 33.7726 154.903 34.3155C157.495 34.8387 158.583 35.7612 158.583 37.3878V37.4193C158.583 39.2209 157.028 40.466 154.87 40.466H154.872Z" fill="black"/>
<path d="M101.309 34.2231C101.556 34.4178 100.701 34.469 100.782 34.3883C100.606 34.2683 100.45 34.1346 100.273 34.0441C98.4268 33.0921 96.4683 32.6279 94.3874 32.6673C91.5503 32.7204 88.8969 33.5366 86.3066 34.6066C84.1092 35.5134 81.9415 36.489 79.7441 37.3977C77.4717 38.3359 75.1302 39.0597 72.6623 39.219C69.5548 39.4216 66.544 38.9476 63.6241 37.8343C61.3714 36.9767 59.3912 35.6904 57.559 34.1523C56.2461 33.0489 54.9629 31.9081 53.6697 30.783C53.5651 30.6906 53.4723 30.5843 53.417 30.4113C53.5039 30.4624 53.6006 30.5057 53.6776 30.5686C55.3182 31.9297 57.1365 32.98 59.1404 33.696C63.9992 35.4327 68.8737 35.535 73.7186 33.6802C75.8706 32.8561 77.9692 31.8943 80.0837 30.9797C82.2692 30.0336 84.4844 29.1761 86.8338 28.7276C89.3352 28.2516 91.8109 28.2772 94.2215 29.2075C95.6351 29.7524 96.9046 30.5529 98.0773 31.5029C99.0645 32.3014 100.036 33.1197 100.985 33.9635" fill="#C19A6B"/>
<path d="M110.237 37.8343C110.399 37.9779 109.808 37.9799 109.868 37.9268C109.751 37.8363 109.649 37.7379 109.532 37.6671C108.298 36.9354 106.967 36.5342 105.532 36.4732C103.574 36.3926 101.712 36.845 99.8837 37.4744C98.3319 38.0074 96.7979 38.5916 95.2461 39.1246C93.641 39.6773 91.9984 40.0785 90.2907 40.0864C88.1407 40.0982 86.0834 39.6458 84.1171 38.7568C82.6008 38.0723 81.2879 37.1026 80.0895 35.9677C79.2307 35.1534 78.3936 34.3136 77.5466 33.4835C77.4775 33.4167 77.4183 33.338 77.3867 33.216C77.444 33.2554 77.5091 33.2888 77.5585 33.336C78.6325 34.3431 79.8427 35.1416 81.1951 35.7179C84.4724 37.1164 87.8287 37.3878 91.2423 36.3119C92.7585 35.834 94.2451 35.2577 95.7417 34.7148C97.2875 34.1523 98.8492 33.6547 100.486 33.4422C102.229 33.218 103.935 33.338 105.558 34.0795C106.509 34.5142 107.352 35.118 108.12 35.8202C108.768 36.4122 109.404 37.0161 110.024 37.6357" fill="#C19A6B"/>
</svg>
